<svg width="34" height="29" viewBox="0 0 34 29" fill="none" xmlns="http://www.w3.org/2000/svg">
<path fill-rule="evenodd" clip-rule="evenodd" d="M14.2224 0.935547C12.3737 0.935547 10.6754 1.96442 9.81926 3.60225L9.32261 4.55419C9.037 5.10005 8.46876 5.44419 7.85241 5.44419H5.71803C2.97598 5.44419 0.754395 7.66578 0.754395 10.4078V23.305C0.754395 26.0471 2.97598 28.2686 5.71803 28.2686H28.8817C31.6237 28.2686 33.8453 26.0471 33.8453 23.305V10.4161C33.8453 7.67403 31.6237 5.45245 28.8817 5.45245H26.7473C26.143 5.45245 25.5748 5.11202 25.2874 4.55814L24.7887 3.60225C23.9325 1.96442 22.2342 0.935547 20.3856 0.935547H14.2224ZM12.2555 6.08656L12.7519 5.1352C13.0375 4.58937 13.606 4.24464 14.2224 4.24464H20.3856C21.0022 4.24464 21.5706 4.58902 21.8561 5.1352L22.3501 6.08202L22.351 6.0838C23.2056 7.72943 24.9035 8.76154 26.7473 8.76154H28.8817C29.7962 8.76154 30.5362 9.50159 30.5362 10.4161V23.305C30.5362 24.2195 29.7962 24.9596 28.8817 24.9596H5.71803C4.80354 24.9596 4.06349 24.2195 4.06349 23.305V10.4078C4.06349 9.49334 4.80354 8.75328 5.71803 8.75328H7.85241C9.70111 8.75328 11.3994 7.72436 12.2555 6.08656ZM13.42 15.743C13.42 13.5956 15.1608 11.8548 17.3082 11.8548C19.4556 11.8548 21.1964 13.5956 21.1964 15.743C21.1964 17.8903 19.4556 19.6312 17.3082 19.6312C15.1608 19.6312 13.42 17.8903 13.42 15.743ZM17.3082 8.5457C13.3333 8.5457 10.1109 11.768 10.1109 15.743C10.1109 19.7179 13.3332 22.9402 17.3082 22.9402C21.2831 22.9402 24.5055 19.7179 24.5055 15.743C24.5055 11.768 21.2831 8.5457 17.3082 8.5457Z" fill="#C3EBE0"/>
</svg>
