<svg width="41" height="41" viewBox="0 0 41 41" fill="none" xmlns="http://www.w3.org/2000/svg">
<path d="M6.40987 9.30994C3.87987 12.4099 2.35986 16.3699 2.35986 20.6899C2.35986 30.6299 10.4199 38.6899 20.3599 38.6899C30.2999 38.6899 38.3599 30.6299 38.3599 20.6899C38.3599 10.7499 30.2999 2.68994 20.3599 2.68994C16.4399 2.68994 12.8199 3.93995 9.85986 6.06995" stroke="#BFBFBF" stroke-width="4" stroke-miterlimit="10" stroke-linecap="round" stroke-linejoin="round"/>
<path d="M20.0699 2.72998C15.9099 7.02998 13.1299 14.1 13.1299 20.69C13.1299 27.3 16.3399 35.58 20.0699 38.69" stroke="#BFBFBF" stroke-width="4" stroke-miterlimit="10" stroke-linecap="round" stroke-linejoin="round"/>
<path d="M20.6499 2.72998C24.8099 7.02998 27.5899 14.1 27.5899 20.69C27.5899 27.3 24.3799 35.58 20.6499 38.69" stroke="#BFBFBF" stroke-width="4" stroke-miterlimit="10" stroke-linecap="round" stroke-linejoin="round"/>
<path d="M4.22998 20.6899H36.49" stroke="#BFBFBF" stroke-width="4" stroke-miterlimit="10" stroke-linecap="round" stroke-linejoin="round"/>
</svg>
