<svg width="21" height="21" viewBox="0 0 21 21" fill="none" xmlns="http://www.w3.org/2000/svg">
<path d="M15.0368 3.46387C13.1064 3.46387 11.8254 4.65007 11.1462 5.51112C10.4686 4.64887 9.18608 3.46387 7.25564 3.46387C6.83414 3.46357 6.41487 3.52511 6.01123 3.64652L7.132 4.74842C8.02557 4.74842 8.97092 5.1097 9.69869 5.81901C10.0439 6.15531 10.3381 6.54034 10.5718 6.96186C10.6252 7.06832 10.7072 7.15782 10.8086 7.22037C10.9099 7.28291 11.0267 7.31603 11.1458 7.31603C11.2649 7.31603 11.3817 7.28291 11.4831 7.22037C11.5844 7.15782 11.6664 7.06832 11.7199 6.96186C11.9537 6.53972 12.2481 6.15414 12.5938 5.81741C13.3215 5.1097 14.1432 4.74842 15.0368 4.74842C16.7689 4.74842 18.1928 6.20679 18.2109 7.99994C18.2325 10.1552 17.2976 11.9961 15.9075 13.6006L16.8159 14.5146C16.9363 14.3765 17.0447 14.2481 17.1427 14.1293C18.7484 12.1723 19.5171 10.1632 19.4954 7.98749C19.4705 5.49185 17.4702 3.46387 15.0368 3.46387Z" fill="#A4A4A4"/>
<path d="M11.1464 17.5949C7.62915 15.2068 4.04124 12.1997 4.08138 8.00087C4.08394 7.75223 4.1141 7.50464 4.1713 7.26266L3.15811 6.24023C2.92549 6.79319 2.80278 7.38616 2.79683 7.98602C2.77516 10.1625 3.54468 12.1716 5.14957 14.1278C5.90304 15.0458 7.26908 16.5142 10.4239 18.6558C10.6366 18.8016 10.8885 18.8797 11.1464 18.8797C11.4043 18.8797 11.6562 18.8016 11.869 18.6558C12.6859 18.1015 13.3823 17.5921 13.9796 17.126L13.07 16.2104C12.441 16.6957 11.7923 17.1553 11.1464 17.5949Z" fill="#A4A4A4"/>
</svg>
