<svg width="22" height="22" viewBox="0 0 22 22" fill="none" xmlns="http://www.w3.org/2000/svg">
<path d="M17.5228 18.7892C17.4381 18.7894 17.3542 18.7727 17.276 18.7402C17.1978 18.7076 17.1268 18.6599 17.0672 18.5997L2.38156 3.8266C2.26147 3.70577 2.1943 3.54217 2.19483 3.37181C2.19535 3.20145 2.26354 3.03827 2.38437 2.91818C2.50521 2.79809 2.6688 2.73092 2.83916 2.73145C3.00952 2.73198 3.1727 2.80016 3.29279 2.92099L17.978 17.6933C18.0677 17.7832 18.1287 17.8977 18.1534 18.0223C18.178 18.1469 18.1652 18.276 18.1164 18.3933C18.0677 18.5106 17.9853 18.6108 17.8797 18.6813C17.774 18.7518 17.6498 18.7893 17.5228 18.7892Z" fill="#A4A4A4"/>
<path d="M15.3986 4.0166C13.4682 4.0166 12.1872 5.20281 11.508 6.06386C10.8304 5.2016 9.54789 4.0166 7.61746 4.0166C7.19595 4.01631 6.77669 4.07785 6.37305 4.19925L7.49382 5.30115C8.38738 5.30115 9.33273 5.66243 10.0605 6.37175C10.4058 6.70804 10.6999 7.09307 10.9336 7.5146C10.987 7.62105 11.069 7.71056 11.1704 7.7731C11.2718 7.83564 11.3885 7.86877 11.5076 7.86877C11.6268 7.86877 11.7435 7.83564 11.8449 7.7731C11.9463 7.71056 12.0282 7.62105 12.0817 7.5146C12.3155 7.09246 12.6099 6.70687 12.9556 6.37014C13.6833 5.66243 14.5051 5.30115 15.3986 5.30115C17.1308 5.30115 18.5546 6.75952 18.5727 8.55267C18.5943 10.7079 17.6594 12.5488 16.2693 14.1533L17.1777 15.0674C17.2982 14.9293 17.4065 14.8008 17.5045 14.682C19.1102 12.7251 19.8789 10.7159 19.8572 8.54023C19.8323 6.04459 17.832 4.0166 15.3986 4.0166Z" fill="#A4A4A4"/>
<path d="M11.5082 18.1476C7.99097 15.7595 4.40306 12.7525 4.4432 8.55361C4.44576 8.30497 4.47592 8.05738 4.53312 7.81539L3.51993 6.79297C3.28731 7.34593 3.1646 7.93889 3.15865 8.53875C3.13697 10.7153 3.9065 12.7244 5.51138 14.6805C6.26485 15.5986 7.63089 17.067 10.7857 19.2086C10.9984 19.3544 11.2503 19.4324 11.5082 19.4324C11.7662 19.4324 12.018 19.3544 12.2308 19.2086C13.0477 18.6542 13.7441 18.1448 14.3415 17.6787L13.4318 16.7631C12.8028 17.2484 12.1541 17.708 11.5082 18.1476Z" fill="#A4A4A4"/>
</svg>
