<svg width="186" height="35" viewBox="0 0 186 35" fill="none" xmlns="http://www.w3.org/2000/svg">
<path d="M18.3412 0C8.71974 0 0.847656 7.87209 0.847656 17.4935C0.847656 27.115 8.71974 34.987 18.3412 34.987C27.9626 34.987 35.8347 27.115 35.8347 17.4935C36.0096 7.87209 28.1376 0 18.3412 0ZM18.5161 29.5641C11.3438 29.5641 7.32026 24.316 6.62052 19.0679C6.44558 18.3682 6.97039 17.6685 7.67013 17.6685C8.36987 17.4935 9.06961 18.0183 9.06961 18.7181C9.59442 22.9165 12.7433 27.115 18.5161 27.115C24.6388 27.115 27.4378 22.7416 27.9626 18.7181C28.1376 18.0183 28.6624 17.4935 29.3621 17.6685C30.0618 17.8434 30.5866 18.3682 30.4117 19.0679C29.537 25.3656 24.8138 29.5641 18.5161 29.5641Z" fill="#00E3A7"/>
<path d="M57.3513 18.0183C57.3513 11.7206 61.025 7.87207 66.6229 7.87207C71.3461 7.87207 74.8448 10.846 75.1947 15.2193H71.1712C70.8213 12.7703 68.897 11.1958 66.6229 11.1958C63.4741 11.1958 61.5498 13.8199 61.5498 17.8434C61.5498 22.0418 63.4741 24.6659 66.6229 24.6659C69.072 24.6659 70.8213 23.2664 71.1712 20.9922H75.1947C74.6699 25.3656 71.3461 28.1646 66.6229 28.1646C61.025 28.1646 57.3513 24.4909 57.3513 18.0183Z" fill="#00E3A7"/>
<path d="M87.7902 23.0922H80.9677L79.3933 27.8154H75.1948L82.0173 8.22266H86.9155L93.738 27.8154H89.3646L87.7902 23.0922ZM81.8424 20.1183H86.9155L84.4664 12.0712H84.2915L81.8424 20.1183Z" fill="#00E3A7"/>
<path d="M104.233 8.22266C108.257 8.22266 111.056 10.8467 111.056 14.8702C111.056 18.8937 108.257 21.5177 104.058 21.5177H100.385V27.6405H96.3613V8.22266H104.233ZM100.385 18.5438H103.184C105.458 18.5438 106.857 17.3193 106.857 15.0451C106.857 12.771 105.458 11.5464 103.184 11.5464H100.385V18.5438Z" fill="#00E3A7"/>
<path d="M117.004 22.2166C117.179 23.791 118.928 24.8407 121.027 24.8407C123.127 24.8407 124.701 23.791 124.701 22.3916C124.701 21.167 123.826 20.4673 121.377 19.9425L118.753 19.4177C115.08 18.7179 113.33 16.7936 113.33 13.9947C113.33 10.321 116.479 8.04688 120.852 8.04688C125.401 8.04688 128.2 10.321 128.375 13.9947H124.526C124.351 12.4203 122.952 11.3706 120.852 11.3706C118.753 11.3706 117.529 12.4203 117.529 13.8197C117.529 15.0443 118.403 15.744 120.677 16.2688L123.302 16.4438C127.15 17.3184 128.899 18.8929 128.899 22.0417C128.899 25.8903 125.751 28.1644 121.027 28.1644C116.304 28.1644 113.33 25.8903 113.155 22.2166H117.004Z" fill="#00E3A7"/>
<path d="M136.072 20.4681C136.072 22.9172 137.472 24.6666 140.271 24.6666C142.895 24.6666 144.294 23.0922 144.294 20.4681V8.22266H148.318V20.9929C148.318 25.3663 145.169 28.3402 140.096 28.3402C135.023 28.3402 131.874 25.3663 131.874 20.9929V8.22266H135.897V20.4681H136.072Z" fill="#00E3A7"/>
<path d="M165.111 27.8154H152.516V8.22266H156.539V24.4916H165.111V27.8154Z" fill="#00E3A7"/>
<path d="M179.806 23.0922H172.983L171.409 27.8154H167.21L174.033 8.22266H178.931L185.753 27.8154H181.38L179.806 23.0922ZM173.858 20.1183H178.931L176.482 12.0712H176.307L173.858 20.1183Z" fill="#00E3A7"/>
</svg>
