<svg width="32" height="10" viewBox="0 0 32 10" fill="none" xmlns="http://www.w3.org/2000/svg">
<g clip-path="url(#clip0)">
<path d="M16.4817 3.18503C16.4641 4.5725 17.7182 5.34672 18.6629 5.80708C19.6335 6.27937 19.9596 6.58226 19.9557 7.00467C19.9485 7.65106 19.1815 7.93636 18.4638 7.94744C17.2116 7.96684 16.4835 7.60937 15.9047 7.33901L15.4536 9.44973C16.0344 9.71732 17.1097 9.9507 18.2247 9.96094C20.8422 9.96094 22.5546 8.66889 22.5639 6.66564C22.5741 4.12323 19.0473 3.9825 19.0714 2.84612C19.0797 2.50154 19.4085 2.13383 20.1289 2.04034C20.4856 1.99311 21.47 1.95696 22.5862 2.47094L23.0242 0.428769C22.424 0.210215 21.6526 0.000937462 20.6921 0.000937462C18.2285 0.000937462 16.4957 1.31058 16.4817 3.18503ZM27.2336 0.176841C26.7557 0.176841 26.3529 0.455636 26.1732 0.883467L22.4342 9.81094H25.0498L25.5703 8.3725H28.7664L29.0683 9.81094H31.3736L29.362 0.176841H27.2336ZM27.5996 2.77937L28.3544 6.39708H26.2871L27.5996 2.77937ZM13.3105 0.176961L11.2488 9.81082H13.7412L15.802 0.176721H13.3105V0.176961ZM9.62341 0.176721L7.02919 6.73419L5.97979 1.15865C5.85666 0.536239 5.37039 0.176841 4.83039 0.176841H0.589671L0.530273 0.4566C1.40088 0.645515 2.39003 0.950214 2.98931 1.27624C3.35606 1.4754 3.46063 1.64949 3.58112 2.12274L5.56871 9.81094H8.20256L12.2406 0.176841H9.62341" fill="url(#paint0_linear)"/>
</g>
<defs>
<linearGradient id="paint0_linear" x1="14.7102" y1="10.1607" x2="14.9985" y2="-0.0683308" gradientUnits="userSpaceOnUse">
<stop stop-color="#222357"/>
<stop offset="1" stop-color="#254AA5"/>
</linearGradient>
<clipPath id="clip0">
<rect width="30.8434" height="10" fill="white" transform="translate(0.530273)"/>
</clipPath>
</defs>
</svg>
