<svg width="33" height="32" viewBox="0 0 33 32" fill="none" xmlns="http://www.w3.org/2000/svg">
<path d="M16.4987 0.000976562C7.69941 0.000976562 0.5 7.20039 0.5 15.9997C0.5 24.799 7.69941 31.9984 16.4987 31.9984C25.298 31.9984 32.4974 24.799 32.4974 15.9997C32.6574 7.20039 25.458 0.000976562 16.4987 0.000976562ZM16.6587 27.0388C10.0992 27.0388 6.41952 22.2392 5.77957 17.4396C5.61958 16.7996 6.09954 16.1597 6.73949 16.1597C7.37944 15.9997 8.01939 16.4796 8.01939 17.1196C8.49935 20.9593 11.3791 24.799 16.6587 24.799C22.2582 24.799 24.818 20.7993 25.298 17.1196C25.458 16.4796 25.9379 15.9997 26.5779 16.1597C27.2178 16.3196 27.6978 16.7996 27.5378 17.4396C26.7379 23.1991 22.4182 27.0388 16.6587 27.0388Z" fill="#00E3A7"/>
</svg>
