<svg width="41" height="32" viewBox="0 0 41 32" fill="none" xmlns="http://www.w3.org/2000/svg">
<path fill-rule="evenodd" clip-rule="evenodd" d="M4.8999 6.4549V25.9898C4.8999 27.0952 5.79447 27.9898 6.8999 27.9898H34.8999C36.0053 27.9898 36.8999 27.0952 36.8999 25.9898V11.1698C36.8999 10.0652 37.7953 9.16978 38.8999 9.16978C40.0045 9.16978 40.8999 10.0652 40.8999 11.1698V25.9898C40.8999 29.3044 38.2145 31.9898 34.8999 31.9898H6.8999C3.58533 31.9898 0.899902 29.3044 0.899902 25.9898V5.02979C0.899902 2.26521 3.13533 0.0297852 5.8999 0.0297852H38.8999C39.7133 0.0297852 40.4457 0.522394 40.7523 1.27576C41.059 2.02913 40.8788 2.89318 40.2967 3.46124L39.3585 4.37667C39.2441 4.56053 39.0977 4.7288 38.9201 4.87291L22.1601 18.4729C21.4243 19.07 20.3705 19.0688 19.6361 18.47L4.8999 6.4549ZM33.6109 4.02979H8.25548L20.9029 14.3418L33.6109 4.02979Z" fill="#BFBFBF"/>
</svg>
