<svg width="35" height="30" viewBox="0 0 35 30" fill="none" xmlns="http://www.w3.org/2000/svg">
<path d="M0 11.9149C0 5.33448 5.33448 0 11.9149 0H23.0851C29.6655 0 35 5.33448 35 11.9149V17.8723C35 24.4528 29.6655 29.7872 23.0851 29.7872H11.9149C5.33448 29.7872 0 24.4528 0 17.8723V11.9149Z" fill="#FF5C46"/>
<path fill-rule="evenodd" clip-rule="evenodd" d="M12.7259 8.87121C12.4835 8.62887 12.0906 8.62887 11.8483 8.87121C11.6059 9.11356 11.6059 9.50648 11.8483 9.74883L16.8394 14.74L11.8483 19.7311C11.6059 19.9735 11.6059 20.3664 11.8483 20.6088C12.0906 20.8511 12.4835 20.8511 12.7259 20.6088L17.717 15.6176L22.7082 20.6088C22.9505 20.8511 23.3435 20.8511 23.5858 20.6088C23.8282 20.3664 23.8282 19.9735 23.5858 19.7311L18.5947 14.74L23.5858 9.74883C23.8282 9.50648 23.8282 9.11356 23.5858 8.87121C23.3435 8.62887 22.9505 8.62887 22.7082 8.87121L17.717 13.8624L12.7259 8.87121Z" fill="white"/>
<path d="M11.8483 8.87121L12.1115 9.1345L12.1115 9.1345L11.8483 8.87121ZM12.7259 8.87121L12.4626 9.1345V9.1345L12.7259 8.87121ZM11.8483 9.74883L12.1115 9.48554H12.1115L11.8483 9.74883ZM16.8394 14.74L17.1027 15.0033C17.2481 14.8579 17.2481 14.6221 17.1027 14.4767L16.8394 14.74ZM11.8483 19.7311L11.585 19.4679H11.585L11.8483 19.7311ZM11.8483 20.6088L12.1115 20.3455H12.1115L11.8483 20.6088ZM12.7259 20.6088L12.4626 20.3455H12.4626L12.7259 20.6088ZM17.717 15.6176L17.9803 15.3543C17.8349 15.2089 17.5992 15.2089 17.4538 15.3543L17.717 15.6176ZM18.5947 14.74L18.3314 14.4767C18.186 14.6221 18.186 14.8579 18.3314 15.0033L18.5947 14.74ZM23.5858 9.74883L23.3225 9.48554V9.48554L23.5858 9.74883ZM23.5858 8.87121L23.3225 9.1345V9.1345L23.5858 8.87121ZM22.7082 8.87121L22.4449 8.60793V8.60793L22.7082 8.87121ZM17.717 13.8624L17.4538 14.1257C17.5992 14.2711 17.8349 14.2711 17.9803 14.1257L17.717 13.8624ZM12.1115 9.1345C12.2085 9.03756 12.3657 9.03756 12.4626 9.1345L12.9892 8.60793C12.6014 8.22017 11.9727 8.22017 11.585 8.60793L12.1115 9.1345ZM12.1115 9.48554C12.0146 9.3886 12.0146 9.23144 12.1115 9.1345L11.585 8.60793C11.1972 8.99568 11.1972 9.62436 11.585 10.0121L12.1115 9.48554ZM17.1027 14.4767L12.1115 9.48554L11.585 10.0121L16.5761 15.0033L17.1027 14.4767ZM12.1115 19.9944L17.1027 15.0033L16.5761 14.4767L11.585 19.4679L12.1115 19.9944ZM12.1115 20.3455C12.0146 20.2485 12.0146 20.0914 12.1115 19.9944L11.585 19.4679C11.1972 19.8556 11.1972 20.4843 11.585 20.872L12.1115 20.3455ZM12.4626 20.3455C12.3657 20.4424 12.2085 20.4424 12.1115 20.3455L11.585 20.872C11.9727 21.2598 12.6014 21.2598 12.9892 20.872L12.4626 20.3455ZM17.4538 15.3543L12.4626 20.3455L12.9892 20.872L17.9803 15.8809L17.4538 15.3543ZM22.9715 20.3455L17.9803 15.3543L17.4538 15.8809L22.4449 20.872L22.9715 20.3455ZM23.3225 20.3455C23.2256 20.4424 23.0684 20.4424 22.9715 20.3455L22.4449 20.872C22.8327 21.2598 23.4613 21.2598 23.8491 20.872L23.3225 20.3455ZM23.3225 19.9944C23.4195 20.0914 23.4195 20.2485 23.3225 20.3455L23.8491 20.872C24.2368 20.4843 24.2368 19.8556 23.8491 19.4679L23.3225 19.9944ZM18.3314 15.0033L23.3225 19.9944L23.8491 19.4679L18.8579 14.4767L18.3314 15.0033ZM23.3225 9.48554L18.3314 14.4767L18.8579 15.0033L23.8491 10.0121L23.3225 9.48554ZM23.3225 9.1345C23.4195 9.23144 23.4195 9.3886 23.3225 9.48554L23.8491 10.0121C24.2368 9.62436 24.2368 8.99568 23.8491 8.60793L23.3225 9.1345ZM22.9715 9.1345C23.0684 9.03756 23.2256 9.03756 23.3225 9.1345L23.8491 8.60793C23.4613 8.22017 22.8327 8.22017 22.4449 8.60793L22.9715 9.1345ZM17.9803 14.1257L22.9715 9.1345L22.4449 8.60793L17.4538 13.5991L17.9803 14.1257ZM12.4626 9.1345L17.4538 14.1257L17.9803 13.5991L12.9892 8.60793L12.4626 9.1345Z" fill="white"/>
</svg>
