<svg width="38" height="38" viewBox="0 0 38 38" fill="none" xmlns="http://www.w3.org/2000/svg">
<path fill-rule="evenodd" clip-rule="evenodd" d="M11.35 11.65C11.35 7.42502 14.775 4 19 4C23.2249 4 26.65 7.42502 26.65 11.65C26.65 15.8571 23.2538 19.271 19.0535 19.2998H18.9465C14.7461 19.271 11.35 15.8571 11.35 11.65ZM11.1386 20.2479C8.81025 18.1178 7.34998 15.0544 7.34998 11.65C7.34998 5.21588 12.5659 0 19 0C25.4341 0 30.65 5.21588 30.65 11.65C30.65 15.0544 29.1897 18.1178 26.8613 20.2478C33.351 22.5384 38 28.7252 38 35.9998C38 37.1044 37.1046 37.9998 36 37.9998C34.8954 37.9998 34 37.1044 34 35.9998C34 28.9844 28.3154 23.2998 21.3 23.2998H19.066C19.044 23.2999 19.022 23.3 19 23.3C18.9779 23.3 18.9559 23.2999 18.934 23.2998H16.7C9.68456 23.2998 4 28.9844 4 35.9998C4 37.1044 3.10457 37.9998 2 37.9998C0.89543 37.9998 0 37.1044 0 35.9998C0 28.7252 4.649 22.5384 11.1386 20.2479Z" fill="#BFBFBF"/>
</svg>
