<svg width="20" height="20" viewBox="0 0 20 20" fill="none" xmlns="http://www.w3.org/2000/svg">
<path fill-rule="evenodd" clip-rule="evenodd" d="M13.8385 0.216798C14.3908 0.216064 14.8391 0.663183 14.8398 1.21547L14.8448 4.98047C14.8456 5.53275 14.3985 5.98106 13.8462 5.9818C13.2939 5.98253 12.8456 5.53541 12.8448 4.98313L12.8436 4.04688H7.1614L7.16016 4.98313C7.15942 5.53541 6.71111 5.98253 6.15883 5.9818C5.60654 5.98106 5.15942 5.53275 5.16016 4.98047L5.1614 4.04688H2.5C2.22228 4.04688 2 4.26916 2 4.54688V16.6469C2 16.9246 2.22228 17.1469 2.5 17.1469H17.5C17.7777 17.1469 18 16.9246 18 16.6469V4.54688C18 4.26916 17.7777 4.04688 17.5 4.04688H16.66C16.1077 4.04688 15.66 3.59916 15.66 3.04688C15.66 2.49459 16.1077 2.04688 16.66 2.04688H17.5C18.8823 2.04688 20 3.16459 20 4.54688V16.6469C20 18.0292 18.8823 19.1469 17.5 19.1469H2.5C1.11772 19.1469 0 18.0292 0 16.6469V4.54688C0 3.16459 1.11772 2.04688 2.5 2.04688H5.16406L5.16516 1.21547C5.1659 0.663183 5.61421 0.216064 6.16649 0.216798C6.71877 0.217532 7.16589 0.665842 7.16516 1.21813L7.16406 2.04688H12.8409L12.8398 1.21813C12.8391 0.665842 13.2862 0.217532 13.8385 0.216798ZM6.16016 8.50684C6.71244 8.50684 7.16016 8.95455 7.16016 9.50684V9.52683C7.16016 10.0791 6.71244 10.5268 6.16016 10.5268C5.60787 10.5268 5.16016 10.0791 5.16016 9.52683V9.50684C5.16016 8.95455 5.60787 8.50684 6.16016 8.50684ZM7.16016 13.4067C7.16016 12.8545 6.71244 12.4067 6.16016 12.4067C5.60787 12.4067 5.16016 12.8545 5.16016 13.4067V13.4317C5.16016 13.984 5.60787 14.4317 6.16016 14.4317C6.71244 14.4317 7.16016 13.984 7.16016 13.4317V13.4067ZM9.20857 8.88261C9.55334 8.45116 10.1826 8.38089 10.614 8.72566L10.6391 8.74565C11.0705 9.09042 11.1408 9.71968 10.796 10.1511C10.4513 10.5826 9.822 10.6529 9.39055 10.3081L9.36552 10.2881C8.93407 9.94332 8.8638 9.31407 9.20857 8.88261ZM10.697 12.6996C10.3063 12.3092 9.67315 12.3095 9.2828 12.7002C8.89246 13.0909 8.89275 13.7241 9.28345 14.1144L9.30848 14.1394C9.69918 14.5298 10.3323 14.5295 10.7227 14.1388C11.113 13.7481 11.1127 13.1149 10.722 12.7246L10.697 12.6996ZM13.8452 8.50684C14.3975 8.50684 14.8452 8.95455 14.8452 9.50684V9.52683C14.8452 10.0791 14.3975 10.5268 13.8452 10.5268C13.2929 10.5268 12.8452 10.0791 12.8452 9.52683V9.50684C12.8452 8.95455 13.2929 8.50684 13.8452 8.50684ZM14.8452 13.4067C14.8452 12.8545 14.3975 12.4067 13.8452 12.4067C13.2929 12.4067 12.8452 12.8545 12.8452 13.4067V13.4317C12.8452 13.984 13.2929 14.4317 13.8452 14.4317C14.3975 14.4317 14.8452 13.984 14.8452 13.4317V13.4067Z" fill="#D4D4D4"/>
</svg>
