<svg width="41" height="41" viewBox="0 0 41 41" fill="none" xmlns="http://www.w3.org/2000/svg">
<path fill-rule="evenodd" clip-rule="evenodd" d="M5.62391 2.55786C7.9986 0.170824 11.8566 0.178007 14.2344 2.55581L17.0099 5.33138C17.0107 5.33214 17.0115 5.33289 17.0122 5.33365C19.3994 7.70833 19.3922 11.5664 17.0144 13.9442L15.5144 15.4442C14.2954 16.6632 14.2954 18.6269 15.5144 19.8458L21.4744 25.8058C22.6933 27.0248 24.657 27.0248 25.876 25.8058L27.3715 24.3102C27.3723 24.3095 27.3731 24.3087 27.3739 24.3079C29.7485 21.9208 33.6066 21.928 35.9844 24.3058L38.7644 27.0858C41.1422 29.4637 41.1494 33.3218 38.7622 35.6964C32.0009 42.4553 21.0363 42.4545 14.276 35.6942L5.62596 27.0442C-1.1344 20.2839 -1.13509 9.31908 5.62391 2.55786ZM11.406 5.38423C10.5846 4.56282 9.26432 4.56922 8.45882 5.37979L8.45439 5.38423C3.25544 10.5832 3.25544 19.0169 8.45439 24.2158L17.1044 32.8658C22.3033 38.0648 30.737 38.0648 35.936 32.8658L35.9404 32.8614C36.751 32.0559 36.7574 30.7356 35.936 29.9142L33.156 27.1342C32.3346 26.3128 31.0143 26.3192 30.2088 27.1298L30.2044 27.1342L28.7044 28.6342C25.9233 31.4153 21.427 31.4153 18.646 28.6342L12.686 22.6742C9.90491 19.8932 9.90491 15.3969 12.686 12.6158L14.186 11.1158C15.0074 10.2944 15.001 8.97416 14.1904 8.16866L14.186 8.16424L11.406 5.38423Z" fill="#BFBFBF"/>
</svg>
