<svg width="18" height="14" viewBox="0 0 18 14" fill="none" xmlns="http://www.w3.org/2000/svg">
<path d="M16.6568 5.7451C16.8798 5.7451 17.0937 5.65652 17.2513 5.49884C17.409 5.34116 17.4976 5.1273 17.4976 4.90431V1.96152C17.4965 1.64448 17.3698 1.3408 17.1452 1.11702C16.9206 0.893231 16.6165 0.767576 16.2994 0.767578H6.38648C6.16348 0.767578 5.94964 0.856174 5.79196 1.01385C5.63428 1.17153 5.54568 1.38538 5.54568 1.60837C5.54568 1.83137 5.63428 2.04523 5.79196 2.20291C5.94964 2.36059 6.16348 2.44917 6.38648 2.44917H15.816V4.18962C15.6867 4.2299 15.5602 4.27907 15.4377 4.33677L15.362 4.37039C15.2414 4.43155 15.1249 4.50036 15.0131 4.5764L14.9794 4.60162C14.8769 4.67581 14.7786 4.75581 14.6851 4.84124L14.6347 4.88749C14.54 4.97962 14.4515 5.07792 14.3698 5.18176L14.3236 5.24483C14.242 5.35395 14.1689 5.46919 14.105 5.58954V5.61478C14.0432 5.72991 13.9898 5.84932 13.9452 5.97211L13.92 6.04358C13.8775 6.17288 13.8438 6.30491 13.8191 6.43876V6.51863C13.7979 6.65778 13.7866 6.79827 13.7855 6.93903C13.7863 7.0798 13.7976 7.22031 13.8191 7.35943V7.4435C13.8438 7.57598 13.8775 7.70662 13.92 7.83448L13.9452 7.90594C13.9902 8.02656 14.0421 8.14447 14.1008 8.25907C14.0994 8.26883 14.0994 8.27874 14.1008 8.2885C14.1633 8.40742 14.235 8.52127 14.3152 8.62903L14.3656 8.69629C14.4472 8.80022 14.5357 8.89854 14.6305 8.99057L14.6767 9.0326C14.7662 9.11783 14.8618 9.19651 14.9626 9.26803L15.0088 9.30167C15.1203 9.37697 15.2369 9.44441 15.3578 9.50346L15.4335 9.5413C15.5582 9.59722 15.6859 9.64633 15.816 9.68842V11.349H2.36329V9.69263C2.49103 9.65164 2.61601 9.60249 2.73745 9.54549L2.8173 9.50766C2.93681 9.44857 3.05198 9.38115 3.16201 9.30587L3.19988 9.27644C3.30203 9.20495 3.39895 9.12628 3.48993 9.04102L3.54037 8.99477C3.63516 8.90273 3.72365 8.80443 3.80523 8.7005L3.85567 8.63323C3.9358 8.52455 4.00883 8.41081 4.07429 8.29271V8.26749C4.13293 8.15145 4.18487 8.03214 4.22983 7.91015L4.25508 7.83868C4.29707 7.70923 4.33077 7.57723 4.35597 7.4435V7.36362C4.37722 7.22448 4.38844 7.08398 4.38959 6.94323C4.38874 6.80246 4.37752 6.66194 4.35597 6.52283V6.43876C4.33077 6.30502 4.29707 6.17303 4.25508 6.04358C4.25329 6.0226 4.25329 6.00151 4.25508 5.98052C4.20909 5.85219 4.1543 5.72717 4.09112 5.60636C4.0216 5.48025 3.94289 5.35942 3.85567 5.24483L3.83048 5.20699C3.45841 4.72331 2.94367 4.36887 2.35908 4.19383V2.46599H3.85567C4.07867 2.46599 4.29256 2.37741 4.45024 2.21973C4.60792 2.06205 4.69647 1.84819 4.69647 1.62519C4.69647 1.4022 4.60792 1.18834 4.45024 1.03066C4.29256 0.872981 4.07867 0.784398 3.85567 0.784398H1.87141C1.55476 0.784398 1.25108 0.910187 1.02717 1.13409C0.803267 1.358 0.67749 1.66168 0.67749 1.97833V4.92111C0.684073 5.14712 0.77876 5.3616 0.941368 5.51871C1.10398 5.67582 1.32159 5.7631 1.54769 5.76191C1.86657 5.76581 2.17085 5.89623 2.39357 6.12447C2.61629 6.35271 2.73925 6.66009 2.73535 6.97897C2.73144 7.29785 2.60103 7.60211 2.37278 7.82483C2.14454 8.04756 1.83717 8.17049 1.51829 8.16659C1.29529 8.16659 1.08145 8.25517 0.923766 8.41285C0.766086 8.57053 0.67749 8.78439 0.67749 9.00738V11.8703C0.677488 12.1873 0.80313 12.4915 1.02692 12.716C1.2507 12.9406 1.55437 13.0673 1.87141 13.0684H16.2953C16.6127 13.0673 16.9168 12.9407 17.1413 12.7163C17.3657 12.4918 17.4923 12.1877 17.4934 11.8703V9.00738C17.4868 8.78137 17.3921 8.56689 17.2295 8.40978C17.0669 8.25267 16.8493 8.16539 16.6232 8.16659C16.3043 8.16268 16 8.03226 15.7773 7.80402C15.5546 7.57578 15.4317 7.26842 15.4356 6.94954C15.4395 6.63066 15.5699 6.32638 15.7981 6.10366C16.0264 5.88094 16.3337 5.75801 16.6526 5.76191L16.6568 5.7451Z" fill="#D4D4D4"/>
<path d="M7.18113 6.50972H11.0362C11.2592 6.50972 11.473 6.42113 11.6307 6.26345C11.7884 6.10577 11.877 5.89191 11.877 5.66892C11.877 5.44593 11.7884 5.23207 11.6307 5.07439C11.473 4.91671 11.2592 4.82812 11.0362 4.82812H7.18113C6.95814 4.82812 6.74429 4.91671 6.58661 5.07439C6.42893 5.23207 6.34033 5.44593 6.34033 5.66892C6.34033 5.89191 6.42893 6.10577 6.58661 6.26345C6.74429 6.42113 6.95814 6.50972 7.18113 6.50972Z" fill="#D4D4D4"/>
<path d="M7.18113 9.0019H11.0362C11.2592 9.0019 11.473 8.91332 11.6307 8.75564C11.7884 8.59796 11.877 8.3841 11.877 8.16111C11.877 7.93812 11.7884 7.72426 11.6307 7.56658C11.473 7.4089 11.2592 7.32031 11.0362 7.32031H7.18113C6.95814 7.32031 6.74429 7.4089 6.58661 7.56658C6.42893 7.72426 6.34033 7.93812 6.34033 8.16111C6.34033 8.3841 6.42893 8.59796 6.58661 8.75564C6.74429 8.91332 6.95814 9.0019 7.18113 9.0019Z" fill="#D4D4D4"/>
</svg>
